<svg xmlns="http://www.w3.org/2000/svg" viewBox="0 0 752.678 184" fill="none">
<g transform="translate(22 22) scale(0.7000)"><g fill="currentColor">
  <g transform="translate(-5.88 159.00)"><path d="M24.229333333333333 -118.0V-3.0679999999999996H42.794666666666664V0.0H4.877333333333333V-3.0679999999999996H21.003999999999998V-114.93199999999999H4.877333333333333V-118.0ZM116.89866666666666 -118.0V-114.93199999999999H100.3V1.5733333333333333H96.05199999999999L21.948 -118.0H40.041333333333334L97.15333333333332 -24.308V-114.93199999999999H78.98133333333332V-118.0Z"/></g>
  <g transform="translate(93.31 159.00)"><path d="M62.14666666666666 1.5733333333333333Q46.17733333333333 1.5733333333333333 34.14133333333333 -6.293333333333333Q22.10533333333333 -14.16 15.418666666666665 -27.848Q8.732 -41.536 8.732 -59.0Q8.732 -76.54266666666666 15.418666666666665 -90.19133333333332Q22.10533333333333 -103.83999999999999 34.14133333333333 -111.70666666666665Q46.17733333333333 -119.57333333333332 62.14666666666666 -119.57333333333332Q70.01333333333334 -119.57333333333332 77.13266666666667 -116.85933333333332Q84.252 -114.14533333333333 89.60133333333333 -109.268L97.78266666666666 -118.0H100.536V-85.74666666666666H97.38933333333333Q96.996 -94.95066666666666 92.15799999999999 -101.716Q87.32 -108.48133333333332 79.80733333333333 -112.17866666666666Q72.29466666666666 -115.87599999999999 63.72 -115.87599999999999Q53.49333333333333 -115.87599999999999 46.373999999999995 -111.07733333333333Q39.254666666666665 -106.27866666666667 34.96733333333333 -98.13666666666666Q30.68 -89.99466666666666 28.71333333333333 -79.84666666666666Q26.746666666666666 -69.69866666666667 26.746666666666666 -59.0Q26.746666666666666 -48.30133333333333 28.71333333333333 -38.153333333333336Q30.68 -28.005333333333333 34.96733333333333 -19.863333333333333Q39.254666666666665 -11.721333333333332 46.373999999999995 -6.922666666666666Q53.49333333333333 -2.1239999999999997 63.72 -2.1239999999999997Q71.508 -2.1239999999999997 77.84066666666666 -4.4446666666666665Q84.17333333333333 -6.7653333333333325 88.81466666666665 -10.895333333333333Q93.45599999999999 -15.025333333333332 96.05199999999999 -20.492666666666665Q98.648 -25.959999999999997 98.96266666666666 -32.25333333333333H102.10933333333332V0.0H99.356L91.88266666666667 -9.282666666666666Q86.53333333333333 -4.247999999999999 78.86333333333333 -1.337333333333333Q71.19333333333333 1.5733333333333333 62.14666666666666 1.5733333333333333Z"/></g>
  <path d="M-14.88 20.00 H214.88 V21.40 H-14.88 Z"/>
  <path d="M-14.88 178.60 H214.88 V180.00 H-14.88 Z"/>
</g></g>
<path fill="currentColor" d="M182.0 44.4 H183.2 V139.6 H182.0 Z"/>
<g transform="translate(202.00 84.30)"><path fill="currentColor" d="M5.749333333333333 -28.000000000000004V-0.7280000000000001H10.154666666666667V0.0H1.1573333333333333V-0.7280000000000001H4.984V-27.272000000000002H1.1573333333333333V-28.000000000000004ZM27.73866666666667 -28.000000000000004V-27.272000000000002H23.8V0.37333333333333335H22.792L5.208 -28.000000000000004H9.501333333333335L23.053333333333335 -5.768000000000001V-27.272000000000002H18.741333333333333V-28.000000000000004ZM38.99466666666667 0.0V-0.7280000000000001H42.35466666666667V-27.272000000000002H38.99466666666667V-28.000000000000004H58.912000000000006V-20.346666666666668H58.184Q58.184 -22.344 57.614666666666665 -23.912Q57.04533333333333 -25.48 55.748 -26.376Q54.45066666666666 -27.272000000000002 52.266666666666666 -27.272000000000002H45.92V-0.7280000000000001H51.87466666666667Q54.432 -0.7280000000000001 55.888000000000005 -1.6613333333333336Q57.344 -2.594666666666667 57.95066666666666 -4.312Q58.55733333333333 -6.029333333333334 58.55733333333333 -8.4H59.285333333333334V0.0ZM51.83733333333333 -10.397333333333334Q51.83733333333333 -11.648000000000001 51.361333333333334 -12.469333333333335Q50.885333333333335 -13.290666666666668 50.04533333333333 -13.701333333333334Q49.205333333333336 -14.112000000000002 48.141333333333336 -14.112000000000002H45.024V-14.840000000000002H48.141333333333336Q49.205333333333336 -14.840000000000002 50.04533333333333 -15.213333333333335Q50.885333333333335 -15.586666666666668 51.361333333333334 -16.37066666666667Q51.83733333333333 -17.154666666666667 51.83733333333333 -18.405333333333335H52.565333333333335V-10.397333333333334ZM75.63733333333334 -28.000000000000004V-0.7280000000000001H80.04266666666668V0.0H71.04533333333333V-0.7280000000000001H74.872V-27.272000000000002H71.04533333333333V-28.000000000000004ZM97.62666666666668 -28.000000000000004V-27.272000000000002H93.688V0.37333333333333335H92.68L75.096 -28.000000000000004H79.38933333333334L92.94133333333335 -5.768000000000001V-27.272000000000002H88.62933333333334V-28.000000000000004ZM113.47466666666668 -28.000000000000004V-0.7280000000000001H117.88000000000001V0.0H108.88266666666667V-0.7280000000000001H112.70933333333333V-27.272000000000002H108.88266666666667V-28.000000000000004ZM135.464 -28.000000000000004V-27.272000000000002H131.52533333333335V0.37333333333333335H130.51733333333334L112.93333333333334 -28.000000000000004H117.22666666666667L130.77866666666668 -5.768000000000001V-27.272000000000002H126.46666666666667V-28.000000000000004ZM146.72 0.0V-0.7280000000000001H150.08V-27.272000000000002H146.72V-28.000000000000004H166.63733333333334V-20.346666666666668H165.90933333333334Q165.90933333333334 -22.344 165.34 -23.912Q164.77066666666667 -25.48 163.47333333333336 -26.376Q162.17600000000002 -27.272000000000002 159.99200000000002 -27.272000000000002H153.64533333333333V-0.7280000000000001H159.6Q162.15733333333333 -0.7280000000000001 163.61333333333334 -1.6613333333333336Q165.06933333333333 -2.594666666666667 165.676 -4.312Q166.28266666666667 -6.029333333333334 166.28266666666667 -8.4H167.01066666666668V0.0ZM159.56266666666667 -10.397333333333334Q159.56266666666667 -11.648000000000001 159.08666666666667 -12.469333333333335Q158.61066666666667 -13.290666666666668 157.77066666666667 -13.701333333333334Q156.93066666666667 -14.112000000000002 155.86666666666667 -14.112000000000002H152.74933333333334V-14.840000000000002H155.86666666666667Q156.93066666666667 -14.840000000000002 157.77066666666667 -15.213333333333335Q158.61066666666667 -15.586666666666668 159.08666666666667 -16.37066666666667Q159.56266666666667 -17.154666666666667 159.56266666666667 -18.405333333333335H160.29066666666668V-10.397333333333334ZM204.90400000000002 -28.000000000000004V-27.272000000000002H201.544V-0.7280000000000001H204.90400000000002V0.0H194.264V-0.7280000000000001H197.99733333333336V-13.440000000000001H185.69600000000003V-0.7280000000000001H189.41066666666669V0.0H178.77066666666667V-0.7280000000000001H182.13066666666668V-27.272000000000002H178.77066666666667V-28.000000000000004H189.41066666666669V-27.272000000000002H185.69600000000003V-14.186666666666667H197.99733333333336V-27.272000000000002H194.264V-28.000000000000004ZM250.9556 0.37333333333333335Q247.16626666666667 0.37333333333333335 244.31026666666668 -1.4933333333333334Q241.45426666666665 -3.3600000000000003 239.86759999999998 -6.6080000000000005Q238.28093333333334 -9.856000000000002 238.28093333333334 -14.000000000000002Q238.28093333333334 -18.162666666666667 239.86759999999998 -21.401333333333334Q241.45426666666665 -24.64 244.31026666666668 -26.506666666666668Q247.16626666666667 -28.373333333333335 250.9556 -28.373333333333335Q252.82226666666668 -28.373333333333335 254.51160000000002 -27.729333333333336Q256.20093333333335 -27.085333333333335 257.47026666666665 -25.928L259.4116 -28.000000000000004H260.06493333333333V-20.346666666666668H259.31826666666666Q259.22493333333335 -22.53066666666667 258.0769333333334 -24.136000000000003Q256.92893333333336 -25.741333333333337 255.1462666666667 -26.61866666666667Q253.3636 -27.496000000000002 251.32893333333334 -27.496000000000002Q248.90226666666666 -27.496000000000002 247.21293333333332 -26.357333333333337Q245.5236 -25.218666666666667 244.50626666666665 -23.28666666666667Q243.48893333333334 -21.354666666666667 243.02226666666667 -18.946666666666665Q242.5556 -16.538666666666668 242.5556 -14.000000000000002Q242.5556 -11.461333333333334 243.02226666666667 -9.053333333333335Q243.48893333333334 -6.645333333333334 244.50626666666665 -4.713333333333334Q245.5236 -2.7813333333333334 247.21293333333332 -1.6426666666666667Q248.90226666666666 -0.504 251.32893333333334 -0.504Q253.17693333333332 -0.504 254.6796 -1.0546666666666669Q256.1822666666667 -1.6053333333333335 257.2836 -2.5853333333333337Q258.3849333333333 -3.5653333333333337 259.00093333333336 -4.862666666666667Q259.61693333333335 -6.16 259.6916 -7.653333333333334H260.43826666666666V0.0H259.78493333333336L258.0116 -2.202666666666667Q256.7422666666667 -1.008 254.9222666666667 -0.31733333333333336Q253.10226666666668 0.37333333333333335 250.9556 0.37333333333333335ZM299.1716 -28.000000000000004V-27.272000000000002H295.8116V-0.7280000000000001H299.1716V0.0H288.5316V-0.7280000000000001H292.2649333333334V-13.440000000000001H279.96360000000004V-0.7280000000000001H283.6782666666667V0.0H273.0382666666667V-0.7280000000000001H276.3982666666667V-27.272000000000002H273.0382666666667V-28.000000000000004H283.6782666666667V-27.272000000000002H279.96360000000004V-14.186666666666667H292.2649333333334V-27.272000000000002H288.5316V-28.000000000000004ZM310.44626666666665 0.0V-0.7280000000000001H313.80626666666666V-27.272000000000002H310.44626666666665V-28.000000000000004H330.36359999999996V-20.346666666666668H329.6356Q329.6356 -22.344 329.0662666666667 -23.912Q328.49693333333335 -25.48 327.19960000000003 -26.376Q325.90226666666666 -27.272000000000002 323.71826666666664 -27.272000000000002H317.3716V-0.7280000000000001H323.32626666666664Q325.8836 -0.7280000000000001 327.3396 -1.6613333333333336Q328.7956 -2.594666666666667 329.40226666666666 -4.312Q330.00893333333335 -6.029333333333334 330.00893333333335 -8.4H330.7369333333333V0.0ZM323.2889333333333 -10.397333333333334Q323.2889333333333 -11.648000000000001 322.8129333333333 -12.469333333333335Q322.3369333333333 -13.290666666666668 321.49693333333335 -13.701333333333334Q320.6569333333333 -14.112000000000002 319.5929333333333 -14.112000000000002H316.4756V-14.840000000000002H319.5929333333333Q320.6569333333333 -14.840000000000002 321.49693333333335 -15.213333333333335Q322.3369333333333 -15.586666666666668 322.8129333333333 -16.37066666666667Q323.2889333333333 -17.154666666666667 323.2889333333333 -18.405333333333335H324.0169333333333V-10.397333333333334ZM350.1502666666667 0.0V-0.7280000000000001H353.51026666666667V-13.458666666666668L344.99826666666667 -27.272000000000002H342.14226666666667V-28.000000000000004H352.9689333333333V-27.272000000000002H349.10493333333335L356.62760000000003 -14.933333333333335L364.0196 -27.272000000000002H360.0996V-28.000000000000004H367.7156V-27.272000000000002H364.87826666666666L357.05693333333335 -14.298666666666668V-0.7280000000000001H360.80893333333336V0.0ZM385.74760000000003 -8.754666666666667V-9.482666666666667H397.84360000000004V-8.754666666666667ZM392.8036 -28.541333333333334 402.4356 -0.7280000000000001H405.3476V0.0H394.52093333333335V-0.7280000000000001H398.3476L391.0116 -23.445333333333334L383.09693333333337 -0.7280000000000001H387.0542666666667V0.0H378.84093333333334V-0.7280000000000001H382.25693333333334L392.0382666666667 -28.541333333333334ZM427.0382666666667 0.5413333333333333Q424.63026666666667 0.5413333333333333 422.8756 -0.20533333333333337Q421.12093333333337 -0.9520000000000001 419.9449333333334 -2.258666666666667L418.2089333333334 0.37333333333333335H417.5742666666667V-7.2986666666666675H418.3022666666667Q418.6009333333334 -5.768000000000001 419.2542666666667 -4.48Q419.9076 -3.192 420.9436 -2.24Q421.9796 -1.288 423.4076 -0.756Q424.83560000000006 -0.22400000000000003 426.7022666666667 -0.22400000000000003Q428.68093333333337 -0.22400000000000003 430.12760000000003 -0.896Q431.5742666666667 -1.568 432.3582666666667 -2.8466666666666667Q433.14226666666667 -4.125333333333334 433.14226666666667 -5.973333333333334Q433.14226666666667 -7.6160000000000005 432.3396 -8.745333333333335Q431.53693333333337 -9.874666666666668 430.2022666666667 -10.705333333333336Q428.86760000000004 -11.536000000000001 427.28093333333334 -12.236Q425.6942666666667 -12.936000000000002 424.10760000000005 -13.701333333333334Q422.52093333333335 -14.466666666666669 421.1862666666667 -15.484000000000002Q419.8516 -16.501333333333335 419.04893333333337 -17.948Q418.2462666666667 -19.39466666666667 418.2462666666667 -21.46666666666667Q418.2462666666667 -23.538666666666668 419.2916 -25.088Q420.3369333333334 -26.637333333333334 422.1009333333334 -27.505333333333333Q423.86493333333334 -28.373333333333335 425.9929333333334 -28.373333333333335Q427.84093333333334 -28.373333333333335 429.39026666666666 -27.785333333333334Q430.93960000000004 -27.197333333333336 432.0782666666667 -26.00266666666667L433.8142666666667 -28.373333333333335H434.4302666666667V-20.701333333333334H433.7209333333334Q433.34760000000006 -23.03466666666667 432.3209333333334 -24.556000000000004Q431.2942666666667 -26.077333333333335 429.7636 -26.814666666666668Q428.23293333333334 -27.552000000000003 426.34760000000006 -27.552000000000003Q423.6782666666667 -27.552000000000003 422.3062666666667 -26.292Q420.9342666666667 -25.032000000000004 420.9342666666667 -22.96Q420.9342666666667 -21.485333333333337 421.72760000000005 -20.45866666666667Q422.52093333333335 -19.432000000000002 423.8276 -18.657333333333334Q425.1342666666667 -17.88266666666667 426.7022666666667 -17.192Q428.2702666666667 -16.501333333333335 429.8382666666667 -15.708000000000002Q431.4062666666667 -14.914666666666667 432.71293333333335 -13.832Q434.0196 -12.749333333333334 434.8129333333334 -11.209333333333333Q435.60626666666667 -9.669333333333334 435.60626666666667 -7.466666666666668Q435.60626666666667 -5.04 434.5609333333333 -3.2386666666666666Q433.5156 -1.4373333333333334 431.59293333333335 -0.448Q429.6702666666667 0.5413333333333333 427.0382666666667 0.5413333333333333ZM457.5022666666667 0.5413333333333333Q455.09426666666667 0.5413333333333333 453.3396 -0.20533333333333337Q451.58493333333337 -0.9520000000000001 450.4089333333334 -2.258666666666667L448.6729333333334 0.37333333333333335H448.0382666666667V-7.2986666666666675H448.7662666666667Q449.0649333333334 -5.768000000000001 449.7182666666667 -4.48Q450.3716 -3.192 451.4076 -2.24Q452.4436 -1.288 453.87160000000006 -0.756Q455.29960000000005 -0.22400000000000003 457.1662666666667 -0.22400000000000003Q459.14493333333337 -0.22400000000000003 460.5916 -0.896Q462.0382666666667 -1.568 462.8222666666667 -2.8466666666666667Q463.60626666666667 -4.125333333333334 463.60626666666667 -5.973333333333334Q463.60626666666667 -7.6160000000000005 462.8036 -8.745333333333335Q462.00093333333336 -9.874666666666668 460.66626666666673 -10.705333333333336Q459.33160000000004 -11.536000000000001 457.7449333333334 -12.236Q456.1582666666667 -12.936000000000002 454.5716 -13.701333333333334Q452.98493333333334 -14.466666666666669 451.65026666666665 -15.484000000000002Q450.3156 -16.501333333333335 449.51293333333336 -17.948Q448.7102666666667 -19.39466666666667 448.7102666666667 -21.46666666666667Q448.7102666666667 -23.538666666666668 449.7556000000001 -25.088Q450.8009333333334 -26.637333333333334 452.56493333333333 -27.505333333333333Q454.32893333333334 -28.373333333333335 456.4569333333334 -28.373333333333335Q458.30493333333334 -28.373333333333335 459.8542666666667 -27.785333333333334Q461.40360000000004 -27.197333333333336 462.5422666666667 -26.00266666666667L464.2782666666667 -28.373333333333335H464.8942666666667V-20.701333333333334H464.18493333333333Q463.81160000000006 -23.03466666666667 462.78493333333336 -24.556000000000004Q461.7582666666667 -26.077333333333335 460.22760000000005 -26.814666666666668Q458.6969333333334 -27.552000000000003 456.81160000000006 -27.552000000000003Q454.14226666666667 -27.552000000000003 452.77026666666666 -26.292Q451.3982666666667 -25.032000000000004 451.3982666666667 -22.96Q451.3982666666667 -21.485333333333337 452.1916 -20.45866666666667Q452.98493333333334 -19.432000000000002 454.2916 -18.657333333333334Q455.5982666666667 -17.88266666666667 457.16626666666673 -17.192Q458.7342666666667 -16.501333333333335 460.3022666666667 -15.708000000000002Q461.8702666666667 -14.914666666666667 463.17693333333335 -13.832Q464.4836 -12.749333333333334 465.2769333333334 -11.209333333333333Q466.0702666666667 -9.669333333333334 466.0702666666667 -7.466666666666668Q466.0702666666667 -5.04 465.02493333333337 -3.2386666666666666Q463.9796 -1.4373333333333334 462.05693333333335 -0.448Q460.1342666666667 0.5413333333333333 457.5022666666667 0.5413333333333333ZM477.5502666666667 0.0V-0.7280000000000001H481.65693333333337V-27.272000000000002H477.5502666666667V-28.000000000000004H489.6836V-27.272000000000002H485.20360000000005V-0.7280000000000001H489.6836V0.0ZM505.5502666666667 -28.000000000000004V-0.7280000000000001H509.95560000000006V0.0H500.9582666666667V-0.7280000000000001H504.78493333333336V-27.272000000000002H500.9582666666667V-28.000000000000004ZM527.5396000000001 -28.000000000000004V-27.272000000000002H523.6009333333334V0.37333333333333335H522.5929333333333L505.0089333333334 -28.000000000000004H509.3022666666667L522.8542666666667 -5.768000000000001V-27.272000000000002H518.5422666666667V-28.000000000000004Z"/></g>
<g transform="translate(202.00 127.70)"><path fill="currentColor" d="M11.573333333333334 0.5413333333333333Q9.165333333333335 0.5413333333333333 7.410666666666668 -0.20533333333333337Q5.656000000000001 -0.9520000000000001 4.48 -2.258666666666667L2.744 0.37333333333333335H2.1093333333333337V-7.2986666666666675H2.8373333333333335Q3.136 -5.768000000000001 3.7893333333333334 -4.48Q4.442666666666667 -3.192 5.478666666666667 -2.24Q6.514666666666667 -1.288 7.942666666666667 -0.756Q9.370666666666667 -0.22400000000000003 11.237333333333334 -0.22400000000000003Q13.216000000000001 -0.22400000000000003 14.662666666666668 -0.896Q16.109333333333336 -1.568 16.893333333333334 -2.8466666666666667Q17.677333333333333 -4.125333333333334 17.677333333333333 -5.973333333333334Q17.677333333333333 -7.6160000000000005 16.87466666666667 -8.745333333333335Q16.072000000000003 -9.874666666666668 14.737333333333336 -10.705333333333336Q13.402666666666669 -11.536000000000001 11.816000000000003 -12.236Q10.229333333333335 -12.936000000000002 8.642666666666667 -13.701333333333334Q7.056000000000001 -14.466666666666669 5.721333333333334 -15.484000000000002Q4.386666666666667 -16.501333333333335 3.584 -17.948Q2.7813333333333334 -19.39466666666667 2.7813333333333334 -21.46666666666667Q2.7813333333333334 -23.538666666666668 3.826666666666667 -25.088Q4.872000000000001 -26.637333333333334 6.636000000000001 -27.505333333333333Q8.4 -28.373333333333335 10.528 -28.373333333333335Q12.376000000000001 -28.373333333333335 13.925333333333334 -27.785333333333334Q15.474666666666668 -27.197333333333336 16.613333333333333 -26.00266666666667L18.349333333333334 -28.373333333333335H18.965333333333334V-20.701333333333334H18.256Q17.88266666666667 -23.03466666666667 16.856 -24.556000000000004Q15.829333333333334 -26.077333333333335 14.298666666666668 -26.814666666666668Q12.768 -27.552000000000003 10.882666666666667 -27.552000000000003Q8.213333333333335 -27.552000000000003 6.841333333333335 -26.292Q5.469333333333334 -25.032000000000004 5.469333333333334 -22.96Q5.469333333333334 -21.485333333333337 6.262666666666668 -20.45866666666667Q7.056000000000001 -19.432000000000002 8.362666666666668 -18.657333333333334Q9.669333333333334 -17.88266666666667 11.237333333333336 -17.192Q12.805333333333335 -16.501333333333335 14.373333333333335 -15.708000000000002Q15.941333333333334 -14.914666666666667 17.248 -13.832Q18.55466666666667 -12.749333333333334 19.348000000000003 -11.209333333333333Q20.141333333333336 -9.669333333333334 20.141333333333336 -7.466666666666668Q20.141333333333336 -5.04 19.096000000000004 -3.2386666666666666Q18.050666666666668 -1.4373333333333334 16.128 -0.448Q14.205333333333334 0.5413333333333333 11.573333333333334 0.5413333333333333ZM31.621333333333336 0.0V-0.7280000000000001H34.98133333333334V-27.272000000000002H31.621333333333336V-28.000000000000004H51.53866666666667V-20.346666666666668H50.81066666666667Q50.81066666666667 -22.344 50.24133333333334 -23.912Q49.672000000000004 -25.48 48.37466666666667 -26.376Q47.077333333333335 -27.272000000000002 44.89333333333334 -27.272000000000002H38.54666666666667V-0.7280000000000001H44.501333333333335Q47.05866666666667 -0.7280000000000001 48.51466666666667 -1.6613333333333336Q49.97066666666667 -2.594666666666667 50.57733333333334 -4.312Q51.184000000000005 -6.029333333333334 51.184000000000005 -8.4H51.912000000000006V0.0ZM44.464000000000006 -10.397333333333334Q44.464000000000006 -11.648000000000001 43.988 -12.469333333333335Q43.512 -13.290666666666668 42.672 -13.701333333333334Q41.832 -14.112000000000002 40.768 -14.112000000000002H37.650666666666666V-14.840000000000002H40.768Q41.832 -14.840000000000002 42.672 -15.213333333333335Q43.512 -15.586666666666668 43.988 -16.37066666666667Q44.464000000000006 -17.154666666666667 44.464000000000006 -18.405333333333335H45.19200000000001V-10.397333333333334ZM77.26133333333334 0.37333333333333335Q73.47200000000001 0.37333333333333335 70.61600000000001 -1.4933333333333334Q67.76 -3.3600000000000003 66.17333333333335 -6.6080000000000005Q64.58666666666667 -9.856000000000002 64.58666666666667 -14.000000000000002Q64.58666666666667 -18.162666666666667 66.17333333333335 -21.401333333333334Q67.76 -24.64 70.61600000000001 -26.506666666666668Q73.47200000000001 -28.373333333333335 77.26133333333334 -28.373333333333335Q79.128 -28.373333333333335 80.81733333333334 -27.729333333333336Q82.50666666666667 -27.085333333333335 83.77600000000001 -25.928L85.71733333333334 -28.000000000000004H86.37066666666666V-20.346666666666668H85.62400000000001Q85.53066666666668 -22.53066666666667 84.38266666666667 -24.136000000000003Q83.23466666666667 -25.741333333333337 81.452 -26.61866666666667Q79.66933333333334 -27.496000000000002 77.63466666666667 -27.496000000000002Q75.208 -27.496000000000002 73.51866666666666 -26.357333333333337Q71.82933333333334 -25.218666666666667 70.81200000000001 -23.28666666666667Q69.79466666666667 -21.354666666666667 69.328 -18.946666666666665Q68.86133333333333 -16.538666666666668 68.86133333333333 -14.000000000000002Q68.86133333333333 -11.461333333333334 69.328 -9.053333333333335Q69.79466666666667 -6.645333333333334 70.81200000000001 -4.713333333333334Q71.82933333333334 -2.7813333333333334 73.51866666666666 -1.6426666666666667Q75.208 -0.504 77.63466666666667 -0.504Q79.48266666666667 -0.504 80.98533333333333 -1.0546666666666669Q82.488 -1.6053333333333335 83.58933333333334 -2.5853333333333337Q84.69066666666667 -3.5653333333333337 85.30666666666667 -4.862666666666667Q85.92266666666667 -6.16 85.99733333333334 -7.653333333333334H86.744V0.0H86.09066666666666L84.31733333333334 -2.202666666666667Q83.048 -1.008 81.22800000000001 -0.31733333333333336Q79.408 0.37333333333333335 77.26133333333334 0.37333333333333335ZM102.96533333333335 -8.101333333333335 117.18933333333335 -27.272000000000002H113.15733333333336V-28.000000000000004H122.11733333333335V-27.272000000000002H118.25333333333336L104.02933333333335 -8.101333333333335ZM99.34400000000001 0.0V-0.7280000000000001H102.70400000000002V-27.272000000000002H99.34400000000001V-28.000000000000004H109.98400000000001V-27.272000000000002H106.26933333333335V-0.7280000000000001H109.98400000000001V0.0ZM112.22400000000002 0.0V-0.7280000000000001H115.99466666666669L108.13600000000001 -14.672L110.45066666666668 -17.565333333333335L120.45600000000002 -0.7280000000000001H123.79733333333336V0.0ZM141.53066666666666 -8.754666666666667V-9.482666666666667H153.62666666666667V-8.754666666666667ZM148.58666666666667 -28.541333333333334 158.21866666666668 -0.7280000000000001H161.13066666666668V0.0H150.304V-0.7280000000000001H154.13066666666668L146.79466666666667 -23.445333333333334L138.88 -0.7280000000000001H142.83733333333333V0.0H134.624V-0.7280000000000001H138.04L147.82133333333334 -28.541333333333334ZM173.48800000000003 -9.912V-10.621333333333334H182.448V-9.912ZM198.40800000000004 -8.101333333333335 212.63200000000003 -27.272000000000002H208.60000000000002V-28.000000000000004H217.56000000000003V-27.272000000000002H213.69600000000003L199.47200000000004 -8.101333333333335ZM194.7866666666667 0.0V-0.7280000000000001H198.1466666666667V-27.272000000000002H194.7866666666667V-28.000000000000004H205.4266666666667V-27.272000000000002H201.71200000000005V-0.7280000000000001H205.4266666666667V0.0ZM207.66666666666669 0.0V-0.7280000000000001H211.43733333333336L203.5786666666667 -14.672L205.89333333333337 -17.565333333333335L215.8986666666667 -0.7280000000000001H219.24000000000004V0.0ZM230.0666666666667 0.0V-0.7280000000000001H233.4266666666667V-27.272000000000002H230.0666666666667V-28.000000000000004H249.98400000000004V-20.346666666666668H249.25600000000003Q249.25600000000003 -22.344 248.6866666666667 -23.912Q248.11733333333336 -25.48 246.82000000000005 -26.376Q245.5226666666667 -27.272000000000002 243.3386666666667 -27.272000000000002H236.99200000000002V-0.7280000000000001H242.9466666666667Q245.50400000000002 -0.7280000000000001 246.96000000000004 -1.6613333333333336Q248.41600000000003 -2.594666666666667 249.02266666666668 -4.312Q249.62933333333336 -6.029333333333334 249.62933333333336 -8.4H250.35733333333337V0.0ZM242.90933333333336 -10.397333333333334Q242.90933333333336 -11.648000000000001 242.43333333333337 -12.469333333333335Q241.95733333333337 -13.290666666666668 241.11733333333336 -13.701333333333334Q240.27733333333336 -14.112000000000002 239.21333333333337 -14.112000000000002H236.09600000000003V-14.840000000000002H239.21333333333337Q240.27733333333336 -14.840000000000002 241.11733333333336 -15.213333333333335Q241.95733333333337 -15.586666666666668 242.43333333333337 -16.37066666666667Q242.90933333333336 -17.154666666666667 242.90933333333336 -18.405333333333335H243.63733333333337V-10.397333333333334ZM262.11733333333336 0.0V-0.7280000000000001H273.31733333333335Q274.9226666666667 -0.7280000000000001 276.28533333333337 -1.5773333333333335Q277.648 -2.4266666666666667 278.46933333333334 -4.022666666666667Q279.2906666666667 -5.618666666666667 279.2906666666667 -7.840000000000001Q279.2906666666667 -10.061333333333334 278.46933333333334 -11.424Q277.648 -12.786666666666667 276.28533333333337 -13.402666666666669Q274.9226666666667 -14.018666666666668 273.31733333333335 -14.018666666666668H268.8373333333334V-14.485333333333335H273.70933333333335Q276.34133333333335 -14.485333333333335 278.54400000000004 -13.832Q280.7466666666667 -13.178666666666668 282.07200000000006 -11.722666666666669Q283.3973333333334 -10.266666666666667 283.3973333333334 -7.840000000000001Q283.3973333333334 -3.64 280.812 -1.82Q278.2266666666667 0.0 273.70933333333335 0.0ZM265.4773333333334 -0.28V-27.720000000000002H269.0426666666667V-0.28ZM268.8373333333334 -14.261333333333335V-14.746666666666668H272.944Q274.3626666666667 -14.746666666666668 275.65066666666667 -15.306666666666668Q276.9386666666667 -15.866666666666667 277.7506666666667 -17.173333333333332Q278.5626666666667 -18.48 278.5626666666667 -20.701333333333334Q278.5626666666667 -22.922666666666668 277.7506666666667 -24.378666666666668Q276.9386666666667 -25.834666666666667 275.65066666666667 -26.553333333333335Q274.3626666666667 -27.272000000000002 272.944 -27.272000000000002H262.11733333333336V-28.000000000000004H272.944Q277.1813333333334 -28.000000000000004 279.7293333333334 -26.366666666666667Q282.2773333333334 -24.733333333333334 282.2773333333334 -21.093333333333334Q282.2773333333334 -17.472 279.8693333333334 -15.866666666666667Q277.46133333333336 -14.261333333333335 272.944 -14.261333333333335ZM295.56800000000004 0.0V-0.7280000000000001H298.92800000000005V-27.272000000000002H295.56800000000004V-28.000000000000004H315.48533333333336V-20.346666666666668H314.7573333333334Q314.7573333333334 -22.344 314.1880000000001 -23.912Q313.61866666666674 -25.48 312.3213333333334 -26.376Q311.02400000000006 -27.272000000000002 308.84000000000003 -27.272000000000002H302.4933333333334V-0.7280000000000001H308.44800000000004Q311.0053333333334 -0.7280000000000001 312.4613333333334 -1.6613333333333336Q313.9173333333334 -2.594666666666667 314.52400000000006 -4.312Q315.13066666666674 -6.029333333333334 315.13066666666674 -8.4H315.8586666666667V0.0ZM308.4106666666667 -10.397333333333334Q308.4106666666667 -11.648000000000001 307.9346666666667 -12.469333333333335Q307.4586666666667 -13.290666666666668 306.61866666666674 -13.701333333333334Q305.7786666666667 -14.112000000000002 304.7146666666667 -14.112000000000002H301.5973333333334V-14.840000000000002H304.7146666666667Q305.7786666666667 -14.840000000000002 306.61866666666674 -15.213333333333335Q307.4586666666667 -15.586666666666668 307.9346666666667 -16.37066666666667Q308.4106666666667 -17.154666666666667 308.4106666666667 -18.405333333333335H309.1386666666667V-10.397333333333334Z"/></g>
</svg>
